<svg width="29" height="32" viewBox="0 0 29 32" fill="none" xmlns="http://www.w3.org/2000/svg">
<path d="M27.165 11.4463H26.3787V7.73872C26.3787 7.7156 26.3749 7.6923 26.3721 7.66872C26.3708 7.52167 26.3226 7.37701 26.2194 7.2625L19.9056 0.214611C19.9037 0.21281 19.9018 0.212171 19.9005 0.210196C19.8629 0.169121 19.819 0.13496 19.7726 0.105388C19.7589 0.0963833 19.745 0.0888306 19.7306 0.0808713C19.6905 0.0596077 19.6478 0.0416557 19.604 0.0288162C19.5921 0.0257371 19.5814 0.0209731 19.5695 0.0178939C19.5218 0.00691357 19.4723 0 19.4221 0H3.90571C3.19717 0 2.62157 0.563136 2.62157 1.25496V11.446H1.83544C0.821855 11.446 0 12.2487 0 13.2396V22.5668C0 23.5567 0.821855 24.3603 1.83544 24.3603H2.62163V30.745C2.62163 31.4368 3.19723 32 3.90577 32H25.0942C25.8021 32 26.3784 31.4369 26.3784 30.745V24.3603H27.1647C28.178 24.3603 29 23.557 29 22.5668V13.2399C28.9999 12.2487 28.1785 11.4463 27.165 11.4463ZM3.90571 1.25496H18.78V7.67528C18.78 8.02195 19.0678 8.30273 19.4221 8.30273H25.0942V11.4463H3.90571V1.25496ZM18.3145 20.5864V22.4062H12.1878V12.8223H14.4149V20.5864H18.3145ZM2.54131 22.4059L5.37892 17.5573L2.64303 12.8223H5.18951L6.04792 14.571C6.33918 15.1537 6.55754 15.6234 6.79047 16.1636H6.81919C7.05259 15.5519 7.24135 15.1253 7.48855 14.571L8.31813 12.8223H10.85L8.08502 17.5006L10.9958 22.4062H8.4346L7.54705 20.6715C7.1835 20.003 6.9504 19.5055 6.67407 18.951H6.64493C6.44096 19.5058 6.19412 20.0036 5.88859 20.6715L5.07346 22.4062H2.54131V22.4059ZM25.0942 30.4053H3.90571V24.3603H25.0942V30.4053H25.0942ZM22.0243 22.549C20.9044 22.549 19.7981 22.2641 19.2456 21.9657L19.6962 20.174C20.2931 20.4724 21.2098 20.7714 22.156 20.7714C23.1749 20.7714 23.7129 20.359 23.7129 19.7334C23.7129 19.136 23.2473 18.7947 22.0685 18.3823C20.4389 17.8275 19.3764 16.946 19.3764 15.5519C19.3764 13.9165 20.7734 12.6654 23.0878 12.6654C24.1932 12.6654 25.0084 12.8936 25.5903 13.1489L25.0955 14.8982C24.7027 14.7131 24.004 14.443 23.0439 14.443C22.0837 14.443 21.6181 14.8693 21.6181 15.3675C21.6181 15.979 22.1705 16.2494 23.4368 16.7188C25.1683 17.3444 25.9834 18.2256 25.9834 19.5766C25.9827 21.1838 24.7171 22.549 22.0243 22.549Z" fill="#E0E0E0"/>
</svg>
