<svg width="14" height="28" viewBox="0 0 14 28" fill="none" xmlns="http://www.w3.org/2000/svg">
<path d="M11.875 3.3125C12.375 3.3125 12.7917 3.5 13.125 3.875C13.5 4.20833 13.6875 4.625 13.6875 5.125V25.5625C13.6875 26.0625 13.5 26.4792 13.125 26.8125C12.7917 27.1458 12.375 27.3125 11.875 27.3125H2.125C1.625 27.3125 1.1875 27.1458 0.8125 26.8125C0.479167 26.4792 0.3125 26.0625 0.3125 25.5625V5.125C0.3125 4.625 0.479167 4.20833 0.8125 3.875C1.1875 3.5 1.625 3.3125 2.125 3.3125H4.3125V0.6875H9.6875V3.3125H11.875Z" fill="#34DC52"/>
</svg>
