<svg width="22" height="27" viewBox="0 0 22 27" fill="none" xmlns="http://www.w3.org/2000/svg">
<path d="M19 18.3125L21.6875 21V22.3125H0.3125V21L3 18.3125V11.6875C3 9.60417 3.52083 7.79167 4.5625 6.25C5.64583 4.70833 7.125 3.70833 9 3.25V2.3125C9 1.77083 9.1875 1.3125 9.5625 0.9375C9.9375 0.520833 10.4167 0.3125 11 0.3125C11.5833 0.3125 12.0625 0.520833 12.4375 0.9375C12.8125 1.3125 13 1.77083 13 2.3125V3.25C14.875 3.70833 16.3333 4.70833 17.375 6.25C18.4583 7.79167 19 9.60417 19 11.6875V18.3125ZM11 26.3125C10.25 26.3125 9.60417 26.0625 9.0625 25.5625C8.5625 25.0208 8.3125 24.3958 8.3125 23.6875H13.6875C13.6875 24.3958 13.4167 25.0208 12.875 25.5625C12.3333 26.0625 11.7083 26.3125 11 26.3125Z" fill="#E0E0E0"/>
</svg>
