<svg width="30" height="30" viewBox="0 0 30 30" fill="none" xmlns="http://www.w3.org/2000/svg">
<path d="M3.75 24.75L6.125 22.3125L8 24.1875L5.625 26.625L3.75 24.75ZM13.6875 29.9375V26H16.3125V29.9375H13.6875ZM9.3125 9.6875C10.8958 8.10417 12.7917 7.3125 15 7.3125C17.2083 7.3125 19.0833 8.10417 20.625 9.6875C22.2083 11.2292 23 13.1042 23 15.3125C23 17.5208 22.2083 19.4167 20.625 21C19.0833 22.5417 17.2083 23.3125 15 23.3125C12.7917 23.3125 10.8958 22.5417 9.3125 21C7.77083 19.4167 7 17.5208 7 15.3125C7 13.1042 7.77083 11.2292 9.3125 9.6875ZM25.6875 14H29.6875V16.6875H25.6875V14ZM22 24.1875L23.875 22.375L26.25 24.75L24.375 26.625L22 24.1875ZM26.25 5.9375L23.875 8.3125L22 6.4375L24.375 4.0625L26.25 5.9375ZM16.3125 0.75V4.6875H13.6875V0.75H16.3125ZM4.3125 14V16.6875H0.3125V14H4.3125ZM8 6.4375L6.125 8.3125L3.75 5.9375L5.625 4.0625L8 6.4375Z" fill="#FFCD0D"/>
</svg>
