<svg width="30" height="22" viewBox="0 0 30 22" fill="none" xmlns="http://www.w3.org/2000/svg">
<path d="M5.6875 12.3125C8.27083 9.77083 11.375 8.5 15 8.5C18.6667 8.5 21.7708 9.77083 24.3125 12.3125L21.6875 15C19.8542 13.1667 17.625 12.25 15 12.25C12.375 12.25 10.1458 13.1667 8.3125 15L5.6875 12.3125ZM11 17.6875C12.0833 16.6042 13.4167 16.0625 15 16.0625C16.5833 16.0625 17.9167 16.6042 19 17.6875L15 21.6875L11 17.6875ZM0.3125 7C4.39583 2.95833 9.29167 0.9375 15 0.9375C20.75 0.9375 25.6458 2.95833 29.6875 7L27 9.6875C23.6667 6.39583 19.6667 4.75 15 4.75C10.3333 4.75 6.33333 6.39583 3 9.6875L0.3125 7Z" fill="#757575"/>
</svg>
