<svg width="24" height="24" viewBox="0 0 24 24" fill="none" xmlns="http://www.w3.org/2000/svg">
<path d="M6 17.0156V18H18V17.0156C18 16.1094 17.3125 15.375 15.9375 14.8125C14.5625 14.2188 13.25 13.9219 12 13.9219C10.75 13.9219 9.4375 14.2188 8.0625 14.8125C6.6875 15.375 6 16.1094 6 17.0156ZM14.1094 11.1094C14.7031 10.5156 15 9.8125 15 9C15 8.1875 14.7031 7.48438 14.1094 6.89062C13.5156 6.29688 12.8125 6 12 6C11.1875 6 10.4844 6.29688 9.89062 6.89062C9.29688 7.48438 9 8.1875 9 9C9 9.8125 9.29688 10.5156 9.89062 11.1094C10.4844 11.7031 11.1875 12 12 12C12.8125 12 13.5156 11.7031 14.1094 11.1094ZM3 5.01562C3 4.48438 3.1875 4.01562 3.5625 3.60938C3.96875 3.20312 4.45312 3 5.01562 3H18.9844C19.5156 3 19.9844 3.20312 20.3906 3.60938C20.7969 4.01562 21 4.48438 21 5.01562V18.9844C21 19.5156 20.7969 19.9844 20.3906 20.3906C19.9844 20.7969 19.5156 21 18.9844 21H5.01562C4.45312 21 3.96875 20.7969 3.5625 20.3906C3.1875 19.9844 3 19.5156 3 18.9844V5.01562Z" fill="#666666"/>
</svg>
