<svg width="24" height="24" viewBox="0 0 24 24" fill="none" xmlns="http://www.w3.org/2000/svg">
<path d="M15.9844 12.9844C16.8594 12.9844 17.8125 13.1094 18.8438 13.3594C19.875 13.6094 20.8281 14.0156 21.7031 14.5781C22.5781 15.1406 23.0156 15.7812 23.0156 16.5V18.9844H17.0156V16.5C17.0156 15.125 16.3594 13.9688 15.0469 13.0312C15.2656 13 15.5781 12.9844 15.9844 12.9844ZM5.15625 13.3594C6.1875 13.1094 7.14062 12.9844 8.01562 12.9844C8.89062 12.9844 9.84375 13.1094 10.875 13.3594C11.9062 13.6094 12.8438 14.0156 13.6875 14.5781C14.5625 15.1406 15 15.7812 15 16.5V18.9844H0.984375V16.5C0.984375 15.7812 1.42188 15.1406 2.29688 14.5781C3.17188 14.0156 4.125 13.6094 5.15625 13.3594ZM10.0781 10.125C9.51562 10.7188 8.82812 11.0156 8.01562 11.0156C7.20312 11.0156 6.5 10.7188 5.90625 10.125C5.3125 9.53125 5.01562 8.82812 5.01562 8.01562C5.01562 7.20312 5.3125 6.5 5.90625 5.90625C6.5 5.3125 7.20312 5.01562 8.01562 5.01562C8.82812 5.01562 9.51562 5.3125 10.0781 5.90625C10.6719 6.5 10.9688 7.20312 10.9688 8.01562C10.9688 8.82812 10.6719 9.53125 10.0781 10.125ZM18.0938 10.125C17.5 10.7188 16.7969 11.0156 15.9844 11.0156C15.1719 11.0156 14.4688 10.7188 13.875 10.125C13.2812 9.53125 12.9844 8.82812 12.9844 8.01562C12.9844 7.20312 13.2812 6.5 13.875 5.90625C14.4688 5.3125 15.1719 5.01562 15.9844 5.01562C16.7969 5.01562 17.5 5.3125 18.0938 5.90625C18.6875 6.5 18.9844 7.20312 18.9844 8.01562C18.9844 8.82812 18.6875 9.53125 18.0938 10.125Z" fill="#666666"/>
</svg>
