<svg width="24" height="24" viewBox="0 0 24 24" fill="none" xmlns="http://www.w3.org/2000/svg">
<path d="M6.60938 10.7812C8.10938 13.6875 10.3125 15.8906 13.2188 17.3906L15.4219 15.1875C15.7344 14.875 16.0781 14.7969 16.4531 14.9531C17.5781 15.3281 18.7656 15.5156 20.0156 15.5156C20.2969 15.5156 20.5312 15.6094 20.7188 15.7969C20.9062 15.9844 21 16.2188 21 16.5V20.0156C21 20.2969 20.9062 20.5312 20.7188 20.7188C20.5312 20.9062 20.2969 21 20.0156 21C15.3281 21 11.3125 19.3438 7.96875 16.0312C4.65625 12.6875 3 8.67188 3 3.98438C3 3.70312 3.09375 3.46875 3.28125 3.28125C3.46875 3.09375 3.70312 3 3.98438 3H7.5C7.78125 3 8.01562 3.09375 8.20312 3.28125C8.39062 3.46875 8.48438 3.70312 8.48438 3.98438C8.48438 5.23438 8.67188 6.42188 9.04688 7.54688C9.17188 7.95312 9.09375 8.29688 8.8125 8.57812L6.60938 10.7812Z" fill="#666666"/>
</svg>
