<svg width="24" height="24" viewBox="0 0 24 24" fill="none" xmlns="http://www.w3.org/2000/svg">
<path fill-rule="evenodd" clip-rule="evenodd" d="M3 5.91304C3 5.40878 3.40878 5 3.91304 5C4.41731 5 4.82609 5.40878 4.82609 5.91304V12.9608L7.77835 12.9608C7.78644 12.9608 7.7945 12.9609 7.80253 12.9611L7.82601 12.9608C8.33027 12.9608 8.73905 13.3695 8.73905 13.8738V13.9086L8.73914 13.9215L8.73905 13.9344V18.0869C8.73905 18.5912 8.33027 19 7.82601 19C7.32175 19 6.91296 18.5912 6.91296 18.0869V14.8823H4.82609V18.0869C4.82609 18.5912 4.41731 19 3.91304 19C3.40878 19 3 18.5912 3 18.0869V13.9215V5.91304ZM6.91296 10.3529C6.91296 10.8835 7.34312 11.3137 7.87375 11.3137H11V18C11 18.5523 11.4477 19 12 19C12.5523 19 13 18.5523 13 18V11.3137H16.1261C16.6567 11.3137 17.0869 10.8835 17.0869 10.3529C17.0869 9.82229 16.6567 9.39214 16.1261 9.39214L7.87375 9.39214C7.34312 9.39214 6.91296 9.82229 6.91296 10.3529ZM20.087 5.00001C20.5912 5.00001 21 5.40879 21 5.91305V18.087C21 18.5912 20.5912 19 20.087 19C19.5827 19 19.1739 18.5912 19.1739 18.087V14.8823H17.087V18.0869C17.087 18.5912 16.6782 19 16.1739 19C15.6697 19 15.2609 18.5912 15.2609 18.0869V13.9284C15.2609 13.9261 15.2609 13.9238 15.2609 13.9215C15.2609 13.9193 15.2609 13.917 15.2609 13.9147V13.8738C15.2609 13.3695 15.6697 12.9608 16.1739 12.9608C16.1818 12.9608 16.1897 12.9609 16.1975 12.9611C16.2055 12.9609 16.2136 12.9608 16.2216 12.9608L19.1739 12.9608V5.91305C19.1739 5.40879 19.5827 5.00001 20.087 5.00001Z" fill="#666666"/>
</svg>
