<svg width="96" height="14" viewBox="0 0 96 14" fill="none" xmlns="http://www.w3.org/2000/svg">
<path d="M8.62887 11H6.90621V6.57715H2.45602V11H0.726524V1.04688H2.45602V5.18945H6.90621V1.04688H8.62887V11ZM10.368 7.2334C10.368 6.50879 10.5115 5.8571 10.7986 5.27832C11.0857 4.69499 11.4891 4.24837 12.0086 3.93848C12.5281 3.62402 13.1251 3.4668 13.7996 3.4668C14.7977 3.4668 15.6066 3.78809 16.2264 4.43066C16.8507 5.07324 17.188 5.92546 17.2381 6.9873L17.2449 7.37695C17.2449 8.10612 17.1036 8.75781 16.8211 9.33203C16.5431 9.90625 16.1421 10.3506 15.618 10.665C15.0984 10.9795 14.4969 11.1367 13.8133 11.1367C12.7697 11.1367 11.9334 10.7904 11.3045 10.0977C10.6801 9.40039 10.368 8.47298 10.368 7.31543V7.2334ZM12.0291 7.37695C12.0291 8.13802 12.1863 8.73503 12.5008 9.16797C12.8152 9.59635 13.2527 9.81055 13.8133 9.81055C14.3738 9.81055 14.8091 9.5918 15.1189 9.1543C15.4334 8.7168 15.5906 8.0765 15.5906 7.2334C15.5906 6.486 15.4288 5.89355 15.1053 5.45605C14.7863 5.01855 14.351 4.7998 13.7996 4.7998C13.2573 4.7998 12.8266 5.01628 12.5076 5.44922C12.1886 5.8776 12.0291 6.52018 12.0291 7.37695ZM18.9362 11V3.60352H21.9371C22.9489 3.60352 23.7191 3.78125 24.2477 4.13672C24.7763 4.48763 25.0407 4.99349 25.0407 5.6543C25.0407 5.99609 24.9336 6.30371 24.7194 6.57715C24.5097 6.84603 24.1976 7.05339 23.7829 7.19922C24.2659 7.29948 24.6487 7.50228 24.9313 7.80762C25.2138 8.11296 25.3551 8.47298 25.3551 8.8877C25.3551 9.57585 25.0999 10.0999 24.5895 10.46C24.0836 10.82 23.3545 11 22.402 11H18.9362ZM20.5973 7.84863V9.6875H22.4157C23.2679 9.6875 23.694 9.38216 23.694 8.77148C23.694 8.15625 23.261 7.84863 22.3952 7.84863H20.5973ZM20.5973 6.65918H21.9645C22.9079 6.65918 23.3795 6.38118 23.3795 5.8252C23.3795 5.24186 22.9329 4.94108 22.0397 4.92285H20.5973V6.65918ZM28.7417 5.95508H30.3686C30.9748 5.95508 31.5034 6.0599 31.9546 6.26953C32.4057 6.47917 32.7475 6.77311 32.98 7.15137C33.2169 7.52962 33.3354 7.9694 33.3354 8.4707C33.3354 9.23177 33.0665 9.84245 32.5288 10.3027C31.991 10.763 31.2755 10.9954 30.3823 11H27.0805V3.60352H28.7417V5.95508ZM36.227 11H34.5659V3.60352H36.227V11ZM28.7417 7.28809V9.67383H30.3618C30.7674 9.67383 31.0864 9.57357 31.3188 9.37305C31.5558 9.16797 31.6743 8.87858 31.6743 8.50488C31.6743 8.13118 31.5581 7.83724 31.3257 7.62305C31.0978 7.4043 30.7879 7.29264 30.396 7.28809H28.7417ZM42.9974 3.60352H44.6517V11H42.9974V6.06445L40.0989 11H38.4446V3.60352H40.0989V8.53906L42.9974 3.60352ZM43.7767 0.766602C43.7767 1.34082 43.5762 1.80566 43.1751 2.16113C42.7741 2.5166 42.2386 2.69434 41.5687 2.69434C40.8988 2.69434 40.3633 2.5166 39.9622 2.16113C39.5612 1.80566 39.3607 1.34082 39.3607 0.766602H40.6048C40.6048 1.06738 40.6891 1.30208 40.8577 1.4707C41.0309 1.63477 41.2679 1.7168 41.5687 1.7168C41.8695 1.7168 42.1042 1.63477 42.2728 1.4707C42.4414 1.30208 42.5257 1.06738 42.5257 0.766602H43.7767ZM56.7021 7.37695C56.7021 8.52083 56.4424 9.43457 55.9229 10.1182C55.4033 10.7972 54.7061 11.1367 53.8311 11.1367C53.0199 11.1367 52.3704 10.8701 51.8828 10.3369V13.8438H50.2217V3.60352H51.7529L51.8213 4.35547C52.3089 3.76302 52.972 3.4668 53.8105 3.4668C54.7129 3.4668 55.4193 3.80404 55.9297 4.47852C56.4447 5.14844 56.7021 6.0804 56.7021 7.27441V7.37695ZM55.0479 7.2334C55.0479 6.49512 54.8997 5.90951 54.6035 5.47656C54.3118 5.04362 53.8926 4.82715 53.3457 4.82715C52.6667 4.82715 52.179 5.10742 51.8828 5.66797V8.94922C52.1836 9.52344 52.6758 9.81055 53.3594 9.81055C53.888 9.81055 54.3005 9.59863 54.5967 9.1748C54.8975 8.74642 55.0479 8.09928 55.0479 7.2334ZM61.5311 11.1367C60.4784 11.1367 59.6239 10.8063 58.9676 10.1455C58.3159 9.48014 57.9901 8.59603 57.9901 7.49316V7.28809C57.9901 6.5498 58.1314 5.89128 58.4139 5.3125C58.701 4.72917 59.1021 4.27572 59.617 3.95215C60.132 3.62858 60.7062 3.4668 61.3397 3.4668C62.3469 3.4668 63.1239 3.78809 63.6707 4.43066C64.2222 5.07324 64.4979 5.98242 64.4979 7.1582V7.82812H59.6649C59.715 8.4388 59.9178 8.92188 60.2733 9.27734C60.6333 9.63281 61.0845 9.81055 61.6268 9.81055C62.3879 9.81055 63.0077 9.50293 63.4862 8.8877L64.3817 9.74219C64.0855 10.1842 63.689 10.5283 63.1922 10.7744C62.7 11.016 62.1463 11.1367 61.5311 11.1367ZM61.3329 4.7998C60.8771 4.7998 60.508 4.95931 60.2254 5.27832C59.9474 5.59733 59.7697 6.04167 59.6922 6.61133H62.8573V6.48828C62.8208 5.93229 62.6727 5.51302 62.4129 5.23047C62.1532 4.94336 61.7931 4.7998 61.3329 4.7998ZM71.5554 5.62695C71.5554 5.95508 71.4551 6.25814 71.2546 6.53613C71.0586 6.80957 70.7806 7.02832 70.4206 7.19238C71.2682 7.48861 71.6921 8.06055 71.6921 8.9082C71.6921 9.58724 71.4164 10.1296 70.8649 10.5352C70.3135 10.9362 69.5752 11.1367 68.6501 11.1367C68.085 11.1367 67.57 11.0433 67.1052 10.8564C66.6403 10.665 66.278 10.3962 66.0182 10.0498C65.7585 9.69889 65.6286 9.28418 65.6286 8.80566H67.2829C67.2829 9.10645 67.4173 9.35938 67.6862 9.56445C67.9551 9.76497 68.2946 9.86523 68.7048 9.86523C69.1104 9.86523 69.4317 9.77181 69.6686 9.58496C69.9102 9.39355 70.0309 9.14518 70.0309 8.83984C70.0309 8.47982 69.9261 8.22005 69.7165 8.06055C69.5068 7.90104 69.1833 7.82129 68.7458 7.82129H67.5563V6.625H68.7868C69.5296 6.61589 69.9011 6.31055 69.9011 5.70898C69.9011 5.4082 69.794 5.1735 69.5798 5.00488C69.3656 4.83626 69.0716 4.75195 68.6979 4.75195C68.3333 4.75195 68.0257 4.8431 67.7751 5.02539C67.5244 5.20312 67.3991 5.42871 67.3991 5.70215H65.7448C65.7448 5.05046 66.0182 4.51725 66.5651 4.10254C67.112 3.68327 67.807 3.47363 68.6501 3.47363C69.5661 3.47363 70.2793 3.66048 70.7897 4.03418C71.3001 4.40788 71.5554 4.9388 71.5554 5.62695ZM76.521 11.1367C75.4683 11.1367 74.6138 10.8063 73.9575 10.1455C73.3058 9.48014 72.98 8.59603 72.98 7.49316V7.28809C72.98 6.5498 73.1213 5.89128 73.4038 5.3125C73.6909 4.72917 74.092 4.27572 74.607 3.95215C75.1219 3.62858 75.6961 3.4668 76.3296 3.4668C77.3368 3.4668 78.1138 3.78809 78.6607 4.43066C79.2121 5.07324 79.4878 5.98242 79.4878 7.1582V7.82812H74.6548C74.7049 8.4388 74.9077 8.92188 75.2632 9.27734C75.6232 9.63281 76.0744 9.81055 76.6167 9.81055C77.3778 9.81055 77.9976 9.50293 78.4761 8.8877L79.3716 9.74219C79.0754 10.1842 78.6789 10.5283 78.1822 10.7744C77.69 11.016 77.1363 11.1367 76.521 11.1367ZM76.3228 4.7998C75.867 4.7998 75.4979 4.95931 75.2154 5.27832C74.9374 5.59733 74.7596 6.04167 74.6822 6.61133H77.8472V6.48828C77.8107 5.93229 77.6626 5.51302 77.4029 5.23047C77.1431 4.94336 76.7831 4.7998 76.3228 4.7998ZM87.4203 7.37695C87.4203 8.52083 87.1605 9.43457 86.641 10.1182C86.1214 10.7972 85.4242 11.1367 84.5492 11.1367C83.738 11.1367 83.0886 10.8701 82.6009 10.3369V13.8438H80.9398V3.60352H82.4711L82.5394 4.35547C83.027 3.76302 83.6901 3.4668 84.5287 3.4668C85.431 3.4668 86.1374 3.80404 86.6478 4.47852C87.1628 5.14844 87.4203 6.0804 87.4203 7.27441V7.37695ZM85.766 7.2334C85.766 6.49512 85.6179 5.90951 85.3216 5.47656C85.03 5.04362 84.6107 4.82715 84.0638 4.82715C83.3848 4.82715 82.8972 5.10742 82.6009 5.66797V8.94922C82.9017 9.52344 83.3939 9.81055 84.0775 9.81055C84.6061 9.81055 85.0186 9.59863 85.3148 9.1748C85.6156 8.74642 85.766 8.09928 85.766 7.2334ZM89.1184 11V3.60352H92.1193C93.1311 3.60352 93.9012 3.78125 94.4299 4.13672C94.9585 4.48763 95.2229 4.99349 95.2229 5.6543C95.2229 5.99609 95.1158 6.30371 94.9016 6.57715C94.6919 6.84603 94.3798 7.05339 93.965 7.19922C94.4481 7.29948 94.8309 7.50228 95.1135 7.80762C95.396 8.11296 95.5373 8.47298 95.5373 8.8877C95.5373 9.57585 95.2821 10.0999 94.7717 10.46C94.2658 10.82 93.5367 11 92.5842 11H89.1184ZM90.7795 7.84863V9.6875H92.5979C93.4501 9.6875 93.8762 9.38216 93.8762 8.77148C93.8762 8.15625 93.4432 7.84863 92.5773 7.84863H90.7795ZM90.7795 6.65918H92.1467C93.09 6.65918 93.5617 6.38118 93.5617 5.8252C93.5617 5.24186 93.1151 4.94108 92.2219 4.92285H90.7795V6.65918Z" fill="white"/>
</svg>
