<svg width="24" height="24" viewBox="0 0 24 24" fill="none" xmlns="http://www.w3.org/2000/svg">
<path d="M9.51562 14.4844C10.2031 15.1719 11.0312 15.5156 12 15.5156C12.9688 15.5156 13.7969 15.1719 14.4844 14.4844C15.1719 13.7969 15.5156 12.9688 15.5156 12C15.5156 11.0312 15.1719 10.2031 14.4844 9.51562C13.7969 8.82812 12.9688 8.48438 12 8.48438C11.0312 8.48438 10.2031 8.82812 9.51562 9.51562C8.82812 10.2031 8.48438 11.0312 8.48438 12C8.48438 12.9688 8.82812 13.7969 9.51562 14.4844ZM19.4531 12.9844L21.5625 14.625C21.7812 14.7812 21.8125 15 21.6562 15.2812L19.6406 18.75C19.5156 18.9688 19.3125 19.0312 19.0312 18.9375L16.5469 17.9531C15.8906 18.4219 15.3281 18.75 14.8594 18.9375L14.4844 21.5625C14.4219 21.8438 14.2656 21.9844 14.0156 21.9844H9.98438C9.73438 21.9844 9.57812 21.8438 9.51562 21.5625L9.14062 18.9375C8.54688 18.6875 7.98438 18.3594 7.45312 17.9531L4.96875 18.9375C4.6875 19.0312 4.48438 18.9688 4.35938 18.75L2.34375 15.2812C2.1875 15 2.21875 14.7812 2.4375 14.625L4.54688 12.9844C4.51562 12.7656 4.5 12.4375 4.5 12C4.5 11.5625 4.51562 11.2344 4.54688 11.0156L2.4375 9.375C2.21875 9.21875 2.1875 9 2.34375 8.71875L4.35938 5.25C4.48438 5.03125 4.6875 4.96875 4.96875 5.0625L7.45312 6.04688C8.10938 5.57812 8.67188 5.25 9.14062 5.0625L9.51562 2.4375C9.57812 2.15625 9.73438 2.01562 9.98438 2.01562H14.0156C14.2656 2.01562 14.4219 2.15625 14.4844 2.4375L14.8594 5.0625C15.4531 5.3125 16.0156 5.64062 16.5469 6.04688L19.0312 5.0625C19.3125 4.96875 19.5156 5.03125 19.6406 5.25L21.6562 8.71875C21.8125 9 21.7812 9.21875 21.5625 9.375L19.4531 11.0156C19.4844 11.2344 19.5 11.5625 19.5 12C19.5 12.4375 19.4844 12.7656 19.4531 12.9844Z" fill="#666666"/>
</svg>
